mastitorrents.com
 
http://mastitorrents.com/forums/index.php

ource: BD50

General

Format                           : Matroska
File size                        : 4.37 GiB
Duration                         : 2h 20mn



Video

Format                           : AVC
Format profile                   : High@L4.1
Format settings, ReFrames        : 4 frames
Duration                         : 2h 20mn
Bit rate                         : 3701 Kbps
Width                            : 1 280 pixels
Height                           : 576 pixels
Display aspect ratio             : 2.22
Frame rate                       : 24.000 fps
Bits/(Pixel*Frame)               : 0.209
Stream size                      : 3.54 GiB (81%)
Writing library                  : x264 core 114 r1913 5fd3dce


Audio

Format                           : DTS
Duration                         : 2h 25mn
Bit rate mode                    : Constant
Bit rate                         : 755 Kbps
Channel(s)                       : 6 channels
Channel positions                : Front: L C R, Side: L R, LFE
Stream size                      : 756 MiB (12%)
Language                         : Hindi

Subtitle Language                : English
